<?xml version="1.0" standalone="no"?>
<!DOCTYPE svg PUBLIC "-//W3C//DTD SVG 20010904//EN"
 "http://www.w3.org/TR/2001/REC-SVG-20010904/DTD/svg10.dtd">
<svg version="1.0" xmlns="http://www.w3.org/2000/svg"
 width="512.000000pt" height="512.000000pt" viewBox="0 0 512.000000 512.000000"
 preserveAspectRatio="xMidYMid meet">
<metadata>
Created by potrace 1.14, written by Peter Selinger 2001-2017
</metadata>
<g transform="translate(0.000000,512.000000) scale(0.100000,-0.100000)"
fill="#000000" stroke="none">
<path d="M2710 5046 c-18 -6 -43 -24 -54 -39 l-21 -28 -1 -2022 c-1 -1590 2
-2027 12 -2047 28 -58 91 -81 145 -54 28 14 33 20 325 454 109 162 267 396
350 520 707 1045 734 1088 729 1126 -4 36 -37 86 -542 834 -207 307 -471 699
-656 975 -85 127 -167 242 -181 256 -32 32 -63 39 -106 25z"/>
<path d="M2314 4333 c-34 -6 1 42 -437 -608 -75 -110 -251 -371 -392 -580
-593 -879 -589 -873 -589 -913 1 -31 28 -77 167 -282 91 -135 240 -355 331
-490 91 -135 241 -357 333 -495 93 -137 249 -369 347 -515 98 -146 192 -278
208 -294 27 -25 36 -28 77 -23 36 4 52 12 72 36 l26 32 0 2027 c0 2212 4 2065
-57 2097 -29 15 -44 16 -86 8z"/>
</g>
</svg>
