<svg width="37" height="37" viewBox="0 0 37 37" fill="none" xmlns="http://www.w3.org/2000/svg">
<path d="M12.567 28.7184C12.567 28.8629 12.4008 28.9785 12.1912 28.9785C11.9527 29.0002 11.7865 28.8846 11.7865 28.7184C11.7865 28.5738 11.9527 28.4582 12.1623 28.4582C12.3791 28.4365 12.567 28.5521 12.567 28.7184ZM10.3195 28.3932C10.2689 28.5377 10.4135 28.7039 10.6303 28.7473C10.8182 28.8195 11.035 28.7473 11.0783 28.6027C11.1217 28.4582 10.9844 28.292 10.7676 28.227C10.5797 28.1764 10.3701 28.2486 10.3195 28.3932ZM13.5137 28.2703C13.3041 28.3209 13.1596 28.4582 13.1812 28.6244C13.2029 28.7689 13.3908 28.8629 13.6076 28.8123C13.8172 28.7617 13.9617 28.6244 13.94 28.4799C13.9184 28.3426 13.7232 28.2486 13.5137 28.2703ZM18.2688 0.578125C8.24551 0.578125 0.578125 8.1877 0.578125 18.2109C0.578125 26.2252 5.62227 33.0832 12.8271 35.4969C13.7521 35.6631 14.0773 35.0922 14.0773 34.6225C14.0773 34.1744 14.0557 31.7029 14.0557 30.1854C14.0557 30.1854 8.99707 31.2693 7.93477 28.0318C7.93477 28.0318 7.11094 25.9289 5.92578 25.3869C5.92578 25.3869 4.2709 24.2523 6.04141 24.274C6.04141 24.274 7.84082 24.4186 8.83086 26.1385C10.4135 28.9279 13.0656 28.1258 14.099 27.6488C14.2652 26.4926 14.735 25.6904 15.2553 25.2135C11.2156 24.7654 7.13984 24.1801 7.13984 17.2281C7.13984 15.2408 7.68906 14.2436 8.84531 12.9717C8.65742 12.502 8.04316 10.5652 9.0332 8.06484C10.5436 7.59512 14.0195 10.016 14.0195 10.016C15.4648 9.61133 17.0186 9.40176 18.5578 9.40176C20.0971 9.40176 21.6508 9.61133 23.0961 10.016C23.0961 10.016 26.5721 7.58789 28.0824 8.06484C29.0725 10.5725 28.4582 12.502 28.2703 12.9717C29.4266 14.2508 30.1348 15.248 30.1348 17.2281C30.1348 24.2018 25.8783 24.7582 21.8387 25.2135C22.5035 25.7844 23.0672 26.8684 23.0672 28.5666C23.0672 31.002 23.0455 34.0154 23.0455 34.608C23.0455 35.0777 23.3779 35.6486 24.2957 35.4824C31.5223 33.0832 36.4219 26.2252 36.4219 18.2109C36.4219 8.1877 28.292 0.578125 18.2688 0.578125ZM7.60234 25.5025C7.5084 25.5748 7.53008 25.741 7.65293 25.8783C7.76855 25.9939 7.93477 26.0445 8.02871 25.9506C8.12266 25.8783 8.10098 25.7121 7.97813 25.5748C7.8625 25.4592 7.69629 25.4086 7.60234 25.5025ZM6.82188 24.9172C6.77129 25.0111 6.84355 25.1268 6.98809 25.199C7.10371 25.2713 7.24824 25.2496 7.29883 25.1484C7.34941 25.0545 7.27715 24.9389 7.13262 24.8666C6.98809 24.8232 6.87246 24.8449 6.82188 24.9172ZM9.16328 27.4898C9.04766 27.5838 9.09102 27.8006 9.25723 27.9379C9.42344 28.1041 9.63301 28.1258 9.72695 28.0102C9.8209 27.9162 9.77754 27.6994 9.63301 27.5621C9.47402 27.3959 9.25723 27.3742 9.16328 27.4898ZM8.33945 26.4275C8.22383 26.4998 8.22383 26.6877 8.33945 26.8539C8.45508 27.0201 8.6502 27.0924 8.74414 27.0201C8.85977 26.9262 8.85977 26.7383 8.74414 26.5721C8.64297 26.4059 8.45508 26.3336 8.33945 26.4275Z" fill="white" fill-opacity="0.9"/>
</svg>
