<svg width="44" height="44" viewBox="0 0 44 44" fill="none" xmlns="http://www.w3.org/2000/svg">
<path d="M0 21.7969C0 9.75586 9.75586 0 21.7969 0C33.8379 0 43.5938 9.75586 43.5938 21.7969C43.5938 33.8379 33.8379 43.5938 21.7969 43.5938C9.75586 43.5938 0 33.8379 0 21.7969ZM12.6211 24.3369L18.9844 17.7012V33.75C18.9844 34.9189 19.9248 35.8594 21.0938 35.8594H22.5C23.6689 35.8594 24.6094 34.9189 24.6094 33.75V17.7012L30.9727 24.3369C31.79 25.1895 33.1523 25.207 33.9873 24.3721L34.9453 23.4053C35.7715 22.5791 35.7715 21.2432 34.9453 20.4258L23.291 8.7627C22.4648 7.93652 21.1289 7.93652 20.3115 8.7627L8.63965 20.4258C7.81348 21.252 7.81348 22.5879 8.63965 23.4053L9.59766 24.3721C10.4414 25.207 11.8037 25.1895 12.6211 24.3369V24.3369Z" fill="white" fill-opacity="0.7"/>
</svg>
